<svg width="60.000000" height="60.000000" viewBox="0 0 60 60" fill="none" xmlns="http://www.w3.org/2000/svg" xmlns:xlink="http://www.w3.org/1999/xlink">
	<desc>
			Created with Pixso.
	</desc>
	<defs>
		<clipPath id="clip737_1462">
			<rect id="Icon" width="60.000000" height="60.000000" fill="white" fill-opacity="0"/>
		</clipPath>
	</defs>
	<rect id="Icon" width="60.000000" height="60.000000" fill="#FFFFFF" fill-opacity="0"/>
	<g clip-path="url(#clip737_1462)">
		<path id="Vector" d="M19.0635 23.3911C18.9033 23.0772 18.5903 22.8711 18.2397 22.8482L9.82715 22.2872C9.39111 22.2442 8.98828 22.5142 8.8291 22.9201L2.76465 38.419C2.60156 38.835 2.73486 39.3079 3.09082 39.5789C3.26855 39.7148 3.48291 39.7829 3.6958 39.7829C3.90674 39.7829 4.11768 39.7169 4.29541 39.583L9.3291 35.8083L12.2603 36.3942C12.7383 36.4893 13.2158 36.2272 13.3901 35.7703C14.9639 31.6476 16.8589 27.8139 19.0195 24.3772C19.2065 24.079 19.2236 23.704 19.0635 23.3911ZM11.8281 34.2682L9.28223 33.7593C9.00439 33.7043 8.71436 33.7703 8.48633 33.9402L5.90771 35.874L10.4243 24.3309L16.4619 24.7329C14.7217 27.6778 13.168 30.8754 11.8281 34.2682Z" fill="#EF2A82" fill-opacity="1.000000" fill-rule="nonzero"/>
		<path id="Vector" d="M37.7129 50.174L37.1519 41.7606C37.1279 41.4086 36.9219 41.0957 36.6079 40.9356C36.2949 40.7757 35.9199 40.7916 35.6221 40.9796C32.1846 43.1404 28.3516 45.0353 24.229 46.6091C23.7729 46.7821 23.5093 47.2601 23.605 47.739L24.1909 50.6698L20.4165 55.7024C20.1484 56.0604 20.1494 56.5524 20.4204 56.9084C20.6133 57.1623 20.9102 57.3033 21.2163 57.3033C21.3384 57.3033 21.4614 57.2803 21.5811 57.2363L37.0801 51.1718C37.4858 51.013 37.7422 50.6089 37.7129 50.174ZM24.125 54.0907L26.0586 51.5119C26.229 51.2849 26.2949 50.995 26.2388 50.716L25.73 48.1712C29.1235 46.8313 32.3203 45.2774 35.2651 43.5375L35.668 49.574L24.125 54.0907Z" fill="#EF2A82" fill-opacity="1.000000" fill-rule="nonzero"/>
		<path id="Vector" d="M28.998 30.0005L22.2603 30.0005C21.8975 30.0005 21.5635 30.1975 21.3862 30.5145L12.9302 45.7093C12.71 46.1053 12.7837 46.6012 13.1099 46.9153C13.3008 47.0993 13.5518 47.1953 13.8037 47.1953C13.9819 47.1953 14.1606 47.1483 14.3208 47.0503L29.5156 37.855C29.8145 37.6741 29.9976 37.3501 29.9976 37.0002L29.9976 31.0004C29.9976 30.4485 29.5498 30.0005 28.998 30.0005ZM27.998 36.4371L16.5098 43.3895L22.8477 32.0013L22.8477 32.0003L27.998 32.0003L27.998 36.4371Z" fill="#EF2A82" fill-opacity="1.000000" fill-rule="nonzero"/>
		<path id="Vector" d="M59.9497 0.963776C59.9087 0.476868 59.5229 0.0908508 59.0361 0.0498352C58.7041 0.023819 25.7754 -2.27502 11.5225 35.0562C11.3818 35.4252 11.4707 35.8411 11.7495 36.1201L16.5044 40.8747C16.7271 41.0977 17.0391 41.1997 17.3521 41.1577C17.6631 41.1127 17.9351 40.9248 18.0869 40.6497L22.8506 32.0005L27.9985 32.0005L27.9985 36.4491L19.2969 41.9427C19.04 42.1057 18.8711 42.3757 18.8369 42.6777C18.8032 42.9796 18.9092 43.2806 19.124 43.4956L23.8789 48.2502C24.0698 48.4412 24.3247 48.5432 24.5854 48.5432C24.7056 48.5432 24.8267 48.5222 24.9429 48.4772C62.2754 34.2233 59.978 1.29482 59.9497 0.963776ZM54.7041 18.7045C51.1953 27.3858 43.166 39.188 24.8325 46.3764L21.4229 42.9666L29.5322 37.847C29.8223 37.663 29.998 37.344 29.998 37.001L29.998 31.0014C29.998 30.4495 29.5503 30.0015 28.998 30.0015L22.2588 30.0015C21.8936 30.0015 21.5586 30.2005 21.3828 30.5195L16.9761 38.5208L13.623 35.1671C26.1353 3.24762 52.8052 1.9417 57.9897 2.01469C58.0269 4.34659 57.813 11.012 54.7041 18.7045Z" fill="#EF2A82" fill-opacity="1.000000" fill-rule="nonzero"/>
		<path id="Vector" d="M17.1289 44.1645C16.9116 43.8766 16.5659 43.7366 16.2266 43.7725C16.2617 43.4326 16.1216 43.0876 15.8345 42.8706C14.3267 41.7307 12.3809 41.3517 10.4941 41.8296C8.49121 42.3385 6.85352 43.7045 6.00146 45.5793L0.0898438 58.5854C-0.0830078 58.9653 -0.00195312 59.4123 0.292969 59.7062C0.483887 59.8982 0.739746 59.9992 1 59.9992C1.14014 59.9992 1.28076 59.9692 1.41406 59.9092L14.4199 53.9967C16.2939 53.1458 17.6597 51.5079 18.1685 49.5051C18.6475 47.6202 18.2686 45.6734 17.1289 44.1645ZM16.231 49.0131C15.8726 50.424 14.9111 51.5769 13.5933 52.1769L3.01367 56.9855L7.82227 46.4054C8.42139 45.0875 9.5752 44.1255 10.9863 43.7676C11.3574 43.6736 11.73 43.6276 12.0981 43.6276C12.7212 43.6276 13.3301 43.7606 13.8848 44.0196L12.9331 45.7045C12.7119 46.0954 12.7793 46.5864 13.0972 46.9034C13.415 47.2224 13.9058 47.2884 14.2959 47.0673L15.981 46.1144C16.3906 46.9963 16.4839 48.0152 16.231 49.0131Z" fill="#EF2A82" fill-opacity="1.000000" fill-rule="nonzero"/>
		<path id="Vector" d="M59.9492 0.964767C59.9082 0.477859 59.5225 0.0918427 59.0352 0.050827C58.6455 0.0197754 49.376 -0.682175 38.4751 4.33949C38.1777 4.47543 37.9668 4.74942 37.9087 5.07144C37.8511 5.39348 37.9551 5.72336 38.186 5.95433L54.0449 21.8132C54.2339 22.0022 54.4888 22.1061 54.7515 22.1061C54.8105 22.1061 54.8696 22.1011 54.9287 22.0911C55.2505 22.0331 55.5234 21.8222 55.6606 21.5251C60.6831 10.624 59.9814 1.35371 59.9492 0.964767ZM54.4277 19.3663L40.6328 5.57137C48.6133 2.20261 55.6016 1.97058 57.9902 2.01065C58.0303 4.40149 57.8052 11.368 54.4277 19.3663Z" fill="#EF2A82" fill-opacity="1.000000" fill-rule="nonzero"/>
		<path id="Vector" d="M44.1606 15.8387C40.7979 12.476 35.3271 12.476 31.9644 15.8387C28.6016 19.2015 28.6016 24.672 31.9644 28.0348C33.6455 29.7166 35.854 30.5566 38.062 30.5566C40.271 30.5566 42.4785 29.7157 44.1606 28.0348C47.5234 24.672 47.5234 19.2014 44.1606 15.8387ZM42.7466 26.6208C40.1641 29.2036 35.9614 29.2036 33.3784 26.6208C30.7954 24.038 30.7954 19.8354 33.3784 17.2526C34.6694 15.9617 36.3662 15.3157 38.062 15.3157C39.7583 15.3157 41.4551 15.9617 42.7466 17.2526C45.3296 19.8354 45.3296 24.038 42.7466 26.6208Z" fill="#EF2A82" fill-opacity="1.000000" fill-rule="nonzero"/>
		<path id="Vector" d="M40.0498 23.925C38.9541 25.0229 37.1704 25.0219 36.0732 23.925C34.9775 22.8281 34.9775 21.0453 36.0732 19.9483C37.1689 18.8523 38.9531 18.8514 40.0498 19.9483C40.4399 20.3392 41.0737 20.3392 41.4639 19.9483C41.855 19.5573 41.855 18.9254 41.4639 18.5344C39.5889 16.6586 36.5352 16.6586 34.6592 18.5344C32.7837 20.4102 32.7837 23.463 34.6592 25.3388C35.5972 26.2768 36.8301 26.7458 38.062 26.7458C39.2949 26.7458 40.5269 26.2768 41.4639 25.3388C41.855 24.9479 41.855 24.3159 41.4639 23.925C41.0737 23.5341 40.4399 23.5341 40.0498 23.925Z" fill="#EF2A82" fill-opacity="1.000000" fill-rule="nonzero"/>
	</g>
</svg>
