<svg width="60.000000" height="60.000000" viewBox="0 0 60 60" fill="none" xmlns="http://www.w3.org/2000/svg" xmlns:xlink="http://www.w3.org/1999/xlink">
	<desc>
			Created with Pixso.
	</desc>
	<defs>
		<clipPath id="clip737_1458">
			<rect id="Icon" width="60.000000" height="60.000000" fill="white" fill-opacity="0"/>
		</clipPath>
	</defs>
	<rect id="Icon" width="60.000000" height="60.000000" fill="#FFFFFF" fill-opacity="0"/>
	<g clip-path="url(#clip737_1458)">
		<path id="Vector" d="M33 41L27 41C26.448 41 26 41.448 26 42C26 42.5519 26.448 42.9999 27 42.9999L33 42.9999C33.552 42.9999 34 42.5519 34 42C34 41.448 33.552 41 33 41Z" fill="#EF2A82" fill-opacity="1.000000" fill-rule="nonzero"/>
		<path id="Vector" d="M55.999 1L4.00098 1C1.79492 1 0 2.79507 0 5.00102L0 42.9989C0 45.2049 1.79492 46.9999 4.00098 46.9999L23.9722 46.9999C23.7405 50.9828 22.0708 53.0001 19 53.0001L17 53.0001C15.3459 53.0001 14 54.3461 14 56.0001C14 57.6541 15.3459 59.0001 17 59.0001L43 59.0001C44.6541 59.0001 46 57.6541 46 56.0001C46 54.3461 44.6538 53.0001 43 53.0001L41 53.0001C37.929 53.0001 36.2595 50.9828 36.0278 46.9999L55.999 46.9999C58.2051 46.9999 60 45.2049 60 42.9989L60 38L60 5.00102C60 2.79507 58.2051 1 55.999 1ZM36.1299 53.0001C34.8979 51.6361 34.1729 49.605 34.0278 47.0001L25.9729 47.0001C25.8269 49.605 25.1021 51.6361 23.8708 53.0001L36.1299 53.0001ZM56 36.9999L58 36.9999L58 5.00102C58 3.89699 57.1021 3.00005 55.999 3.00005L4.00098 3.00005C2.89795 3.00005 2 3.89699 2 5.00102L2 36.9999L4 36.9999L4 6.00002C4 5.44806 4.448 5.00005 5 5.00005L55 5.00005C55.552 5.00005 56 5.44806 56 6.00002L56 36.9999ZM54 37L54 6.99997L6 6.99997L6 37L54 37ZM4.9917 39L5 39L55 39L55.0083 39L58 39L58 42.999C58 44.103 57.1021 45 55.999 45L4.00098 45C2.89795 45 2 44.103 2 42.999L2 39L4.9917 39ZM43 57L17 57C16.448 57 16 56.5511 16 56.0001C16 55.4491 16.448 55.0001 17 55.0001L43 55.0001C43.552 55.0001 44 55.4491 44 56.0001C44 56.5511 43.552 57 43 57Z" fill="#EF2A82" fill-opacity="1.000000" fill-rule="evenodd"/>
		<path id="Vector" d="M47.7839 30.464L45.3701 28.05L46.7129 26.707C46.9619 26.458 47.062 26.096 46.9761 25.755C46.8899 25.414 46.6309 25.144 46.2939 25.042L36.2939 22.042C35.9409 21.936 35.5601 22.033 35.3 22.293C35.0391 22.5531 34.9431 22.935 35.0491 23.287L38.0491 33.287C38.1499 33.625 38.4209 33.884 38.762 33.97C39.1018 34.054 39.4648 33.9559 39.7139 33.707L41.1279 32.292L43.542 34.707C43.729 34.8949 43.9839 34.9999 44.2488 34.9999C44.5139 34.9999 44.7688 34.8949 44.9558 34.707L47.7839 31.8779C48.1748 31.487 48.1748 30.855 47.7839 30.464ZM44.2488 32.586L42.051 30.387C41.7959 30.132 41.4619 30.0049 41.1279 30.0049C40.793 30.0049 40.459 30.1329 40.2051 30.3859L39.4829 31.1079L37.498 24.4909L44.115 26.4759L43.3408 27.25C43.1279 27.464 43.011 27.748 43.011 28.05C43.011 28.3531 43.1289 28.639 43.343 28.851L45.6628 31.1709L44.2488 32.586Z" fill="#EF2A82" fill-opacity="1.000000" fill-rule="evenodd"/>
		<path id="Vector" d="M42 9L14 9C13.448 9 13 9.44801 13 9.99995L13 28.9999C13 29.5519 13.448 29.9999 14 29.9999L37.8059 29.9999C38.123 29.9999 38.4199 29.8509 38.6082 29.5969C38.7971 29.3429 38.855 29.0149 38.7639 28.7119L37.498 24.4909L41.7131 25.7559C42.0161 25.847 42.344 25.789 42.5969 25.6C42.8508 25.412 43 25.114 43 24.7979L43 9.99995C43 9.44801 42.5518 9 42 9ZM41 14L41 11L15 11L15 14L41 14ZM15 16L41 16L41 23.454L36.293 22.042C35.9399 21.936 35.5588 22.033 35.2988 22.293C35.0378 22.554 34.9419 22.935 35.0479 23.2881L36.4619 28.0001L15 28.0001L15 16ZM26.0002 20.0001L18 20.0001C17.4482 20.0001 17.0002 20.4481 17.0002 21.0001L17.0002 25C17.0002 25.552 17.4482 26 18 26L26.0002 26C26.552 26 27 25.552 27 25L27 21.0001C27 20.4481 26.552 20.0001 26.0002 20.0001ZM25 24.0001L19 24.0001L19 22L25 22L25 24.0001Z" fill="#EF2A82" fill-opacity="1.000000" fill-rule="evenodd"/>
	</g>
</svg>
