<svg width="60.000000" height="60.000000" viewBox="0 0 60 60" fill="none" xmlns="http://www.w3.org/2000/svg" xmlns:xlink="http://www.w3.org/1999/xlink">
	<desc>
			Created with Pixso.
	</desc>
	<defs>
		<clipPath id="clip737_1454">
			<rect id="Icon" width="60.000000" height="60.000000" fill="white" fill-opacity="0"/>
		</clipPath>
	</defs>
	<rect id="Icon" width="60.000000" height="60.000000" fill="#FFFFFF" fill-opacity="0"/>
	<g clip-path="url(#clip737_1454)">
		<path id="Vector" d="M47.2478 6.71074C42.2336 2.99684 36.2834 1.03453 30.0403 1.03453C24.3474 1.03453 18.6919 2.67316 14.4827 5.48485L14.4827 1.03453C14.4827 0.46347 14.019 0 13.448 0C12.877 0 12.4136 0.46347 12.4136 1.03453L12.4136 7.54242C12.4136 7.94379 12.6453 8.30894 13.0083 8.47864C13.3716 8.64937 13.8008 8.59453 14.1091 8.33789C18.0547 5.06062 24.0103 3.10336 30.0403 3.10336C35.8364 3.10336 41.3606 4.92609 46.0168 8.3741C46.2019 8.51062 46.417 8.57684 46.6313 8.57684C46.9478 8.57684 47.2603 8.43199 47.4629 8.1579C47.8035 7.69864 47.7073 7.05106 47.2478 6.71074Z" fill="#EF2A82" fill-opacity="1.000000" fill-rule="nonzero"/>
		<path id="Vector" d="M58.9653 12.4138L52.4575 12.4138C52.0562 12.4138 51.6931 12.6465 51.5225 13.0097C51.3516 13.3728 51.4065 13.8021 51.6631 14.1105C54.9404 18.055 56.8977 24.0105 56.8977 30.0415C56.8977 35.8377 55.075 41.3618 51.627 46.017C51.2866 46.4762 51.3828 47.1238 51.842 47.4642C52.0271 47.6008 52.2424 47.667 52.4565 47.667C52.7732 47.667 53.0854 47.5221 53.2893 47.248C57.0032 42.2339 58.9656 36.2835 58.9656 30.0405C58.9656 24.3477 57.3269 18.6912 54.5151 14.4829L58.9656 14.4829C59.5366 14.4829 60 14.0194 60 13.4483C60 12.8773 59.5364 12.4138 58.9653 12.4138Z" fill="#EF2A82" fill-opacity="1.000000" fill-rule="nonzero"/>
		<path id="Vector" d="M46.9924 51.5224C46.6294 51.3527 46.2009 51.4054 45.8916 51.6631C41.9463 54.9404 35.9907 56.8976 29.9607 56.8976C24.1633 56.8976 18.6392 55.0749 13.9841 51.6269C13.5249 51.2866 12.8772 51.3828 12.5369 51.8421C12.1965 52.3013 12.2927 52.9489 12.752 53.2893C17.7661 57.0031 23.7166 58.9655 29.9595 58.9655C35.6523 58.9655 41.3079 57.3269 45.5171 54.5152L45.5171 58.9655C45.5171 59.5366 45.9807 60.0001 46.5518 60.0001C47.1228 60.0001 47.5862 59.5366 47.5862 58.9655L47.5862 52.4576C47.5862 52.0562 47.3545 51.691 46.9924 51.5224Z" fill="#EF2A82" fill-opacity="1.000000" fill-rule="nonzero"/>
		<path id="Vector" d="M8.33789 45.8907C5.06055 41.9452 3.10327 35.9907 3.10327 29.9596C3.10327 24.1634 4.92603 18.6393 8.37305 13.9842C8.71338 13.5249 8.61719 12.8773 8.15796 12.5369C7.69873 12.1955 7.05103 12.2928 6.71069 12.7521C2.99683 17.7662 1.03442 23.7165 1.03442 29.9596C1.03442 35.6524 2.6731 41.308 5.48486 45.5172L1.03442 45.5172C0.463379 45.5172 0 45.9807 0 46.5518C0 47.1228 0.463379 47.5863 1.03442 47.5863L7.54248 47.5863C7.94385 47.5863 8.30786 47.3546 8.47852 46.9914C8.64941 46.6283 8.59448 46.1989 8.33789 45.8907Z" fill="#EF2A82" fill-opacity="1.000000" fill-rule="nonzero"/>
		<path id="Vector" d="M31.0344 19.653C31.0334 19.082 30.5698 18.6206 29.9998 18.6206C29.9998 18.6206 29.9988 18.6206 29.9978 18.6206C29.4255 18.6217 28.9644 19.0861 28.9653 19.6571L28.9902 30.002C28.9912 30.573 29.4546 31.0344 30.0247 31.0344C30.0259 31.0344 30.0269 31.0344 30.0269 31.0344C30.5989 31.0333 31.0603 30.5689 31.0593 29.9979L31.0344 19.653Z" fill="#EF2A82" fill-opacity="1.000000" fill-rule="nonzero"/>
		<path id="Vector" d="M30.0247 28.9655L23.793 28.9655C23.2219 28.9655 22.7585 29.4289 22.7585 30C22.7585 30.571 23.2219 31.0345 23.793 31.0345L30.0247 31.0345C30.5957 31.0345 31.0593 30.571 31.0593 30C31.0593 29.4289 30.5957 28.9655 30.0247 28.9655Z" fill="#EF2A82" fill-opacity="1.000000" fill-rule="nonzero"/>
		<path id="Vector" d="M30 8.27588C18.0217 8.27588 8.27588 18.0207 8.27588 30C8.27588 41.9792 18.0217 51.7241 30 51.7241C41.9792 51.7241 51.7241 41.9792 51.7241 30C51.7241 18.0207 41.9792 8.27588 30 8.27588ZM30 49.6551C19.1616 49.6551 10.3447 40.8383 10.3447 30C10.3447 19.1617 19.1616 10.3448 30 10.3448C40.8384 10.3448 49.655 19.1617 49.655 30C49.655 40.8383 40.8384 49.6551 30 49.6551Z" fill="#EF2A82" fill-opacity="1.000000" fill-rule="nonzero"/>
		<path id="Vector" d="M15.5173 28.9655L13.4482 28.9655C12.8772 28.9655 12.4138 29.4289 12.4138 30C12.4138 30.571 12.8772 31.0345 13.4482 31.0345L15.5173 31.0345C16.0884 31.0345 16.5518 30.571 16.5518 30C16.5518 29.4289 16.0884 28.9655 15.5173 28.9655Z" fill="#EF2A82" fill-opacity="1.000000" fill-rule="nonzero"/>
		<path id="Vector" d="M46.5518 28.9655L44.4827 28.9655C43.9116 28.9655 43.4482 29.4289 43.4482 30C43.4482 30.571 43.9116 31.0345 44.4827 31.0345L46.5518 31.0345C47.1228 31.0345 47.5862 30.571 47.5862 30C47.5862 29.4289 47.1228 28.9655 46.5518 28.9655Z" fill="#EF2A82" fill-opacity="1.000000" fill-rule="nonzero"/>
		<path id="Vector" d="M29.9998 43.4482C29.4287 43.4482 28.9653 43.9117 28.9653 44.4828L28.9653 46.5517C28.9653 47.1228 29.4287 47.5862 29.9998 47.5862C30.5708 47.5862 31.0344 47.1228 31.0344 46.5517L31.0344 44.4828C31.0344 43.9116 30.5708 43.4482 29.9998 43.4482Z" fill="#EF2A82" fill-opacity="1.000000" fill-rule="nonzero"/>
		<path id="Vector" d="M29.9998 12.4138C29.4287 12.4138 28.9653 12.8773 28.9653 13.4483L28.9653 15.5173C28.9653 16.0883 29.4287 16.5518 29.9998 16.5518C30.5708 16.5518 31.0344 16.0883 31.0344 15.5173L31.0344 13.4483C31.0344 12.8773 30.5708 12.4138 29.9998 12.4138Z" fill="#EF2A82" fill-opacity="1.000000" fill-rule="nonzero"/>
		<path id="Vector" d="M20.3865 39.6135C19.9832 39.2089 19.3281 39.2089 18.9238 39.6135L17.5645 40.9718C17.1611 41.3753 17.1611 42.0301 17.5645 42.4345C17.7664 42.6362 18.031 42.7376 18.2959 42.7376C18.5608 42.7376 18.8257 42.6373 19.0273 42.4345L20.3865 41.0762C20.79 40.6727 20.79 40.0179 20.3865 39.6135Z" fill="#EF2A82" fill-opacity="1.000000" fill-rule="nonzero"/>
		<path id="Vector" d="M42.4346 17.5655C42.03 17.1609 41.3762 17.1609 40.9717 17.5655L39.6135 18.9238C39.209 19.3283 39.209 19.9821 39.6135 20.3865C39.8152 20.5882 40.0801 20.6896 40.3447 20.6896C40.6096 20.6896 40.8745 20.5882 41.0762 20.3865L42.4346 19.0282C42.8389 18.6238 42.8389 17.97 42.4346 17.5655Z" fill="#EF2A82" fill-opacity="1.000000" fill-rule="nonzero"/>
		<path id="Vector" d="M42.4346 40.9717L41.0762 39.6133C40.6716 39.2088 40.0178 39.2088 39.6135 39.6133C39.209 40.0179 39.209 40.6717 39.6135 41.0761L40.9717 42.4344C41.1733 42.6361 41.4382 42.7374 41.7031 42.7374C41.968 42.7374 42.2329 42.6371 42.4346 42.4344C42.8389 42.03 42.8389 41.3762 42.4346 40.9717Z" fill="#EF2A82" fill-opacity="1.000000" fill-rule="nonzero"/>
		<path id="Vector" d="M20.3867 18.9238L19.0273 17.5655C18.6238 17.1609 17.969 17.1609 17.5647 17.5655C17.1602 17.97 17.1602 18.6247 17.5647 19.0282L18.9238 20.3865C19.1255 20.5882 19.3904 20.6896 19.6553 20.6896C19.9202 20.6896 20.1851 20.5882 20.3867 20.3865C20.7913 19.9821 20.7913 19.3273 20.3867 18.9238Z" fill="#EF2A82" fill-opacity="1.000000" fill-rule="nonzero"/>
	</g>
</svg>
